<svg width="287" height="48" viewBox="0 0 287 48" fill="none" xmlns="http://www.w3.org/2000/svg">
<path d="M54 3H64.75L81.75 36.5H88.25V1H97.75L98.25 47.5H76.5L54 3Z" fill="white" fill-opacity="0.21"/>
<path d="M184.5 0H196V35.5H205L215 0H226L215 46.5H186.5L184.5 0Z" fill="white" fill-opacity="0.21"/>
<path d="M102 0L140 0.5L128.5 9H114.5L113 37H130L128.5 9L140 0.5V47.5H103L102 0Z" fill="white" fill-opacity="0.21"/>
<path d="M145 0H158V36.5H183.5V47H145V0Z" fill="white" fill-opacity="0.21"/>
<path d="M286.5 0L283 12H263L253 46.5H218L221 34.5H241.5L253 0H286.5Z" fill="white" fill-opacity="0.21"/>
<path d="M0 2H37L42 12.9756H5L0 2Z" fill="#536DFE"/>
<path d="M27.5 36.0244H65.5L70.5 47H32.5L27.5 36.0244Z" fill="white" fill-opacity="0.21"/>
<path d="M19.5 18.4634H44.5518L49.547 29.439H24.5L19.5 18.4634Z" fill="#536DFE"/>
</svg>
